<mxfile host="65bd71144e">
    <diagram id="lSgwqEp4b7EldtWYeXMi" name="PÃ¡gina-1">
        <mxGraphModel dx="903" dy="636" grid="1" gridSize="10" guides="1" tooltips="1" connect="1" arrows="1" fold="1" page="1" pageScale="1" pageWidth="827" pageHeight="1169" math="0" shadow="0">
            <root>
                <mxCell id="0"/>
                <mxCell id="1" parent="0"/>
                <mxCell id="2" value="membros" style="swimlane;fontStyle=0;childLayout=stackLayout;horizontal=1;startSize=30;horizontalStack=0;resizeParent=1;resizeParentMax=0;resizeLast=0;collapsible=1;marginBottom=0;whiteSpace=wrap;html=1;" parent="1" vertex="1">
                    <mxGeometry x="154" y="180" width="140" height="180" as="geometry">
                        <mxRectangle x="40" y="140" width="90" height="30" as="alternateBounds"/>
                    </mxGeometry>
                </mxCell>
                <mxCell id="3" value="membro_id (INT)" style="text;strokeColor=none;fillColor=none;align=left;verticalAlign=middle;spacingLeft=4;spacingRight=4;overflow=hidden;points=[[0,0.5],[1,0.5]];portConstraint=eastwest;rotatable=0;whiteSpace=wrap;html=1;fontStyle=4" parent="2" vertex="1">
                    <mxGeometry y="30" width="140" height="30" as="geometry"/>
                </mxCell>
                <mxCell id="4" value="nome (VARCHAR(20))" style="text;strokeColor=none;fillColor=none;align=left;verticalAlign=middle;spacingLeft=4;spacingRight=4;overflow=hidden;points=[[0,0.5],[1,0.5]];portConstraint=eastwest;rotatable=0;whiteSpace=wrap;html=1;" parent="2" vertex="1">
                    <mxGeometry y="60" width="140" height="30" as="geometry"/>
                </mxCell>
                <mxCell id="14" value="nome (VARCHAR(20))" style="text;strokeColor=none;fillColor=none;align=left;verticalAlign=middle;spacingLeft=4;spacingRight=4;overflow=hidden;points=[[0,0.5],[1,0.5]];portConstraint=eastwest;rotatable=0;whiteSpace=wrap;html=1;" parent="2" vertex="1">
                    <mxGeometry y="90" width="140" height="30" as="geometry"/>
                </mxCell>
                <mxCell id="5" value="cargo (VARCHAR(60))" style="text;strokeColor=none;fillColor=none;align=left;verticalAlign=middle;spacingLeft=4;spacingRight=4;overflow=hidden;points=[[0,0.5],[1,0.5]];portConstraint=eastwest;rotatable=0;whiteSpace=wrap;html=1;" parent="2" vertex="1">
                    <mxGeometry y="120" width="140" height="30" as="geometry"/>
                </mxCell>
                <mxCell id="6" value="genero (CHAR(1))" style="text;strokeColor=none;fillColor=none;align=left;verticalAlign=middle;spacingLeft=4;spacingRight=4;overflow=hidden;points=[[0,0.5],[1,0.5]];portConstraint=eastwest;rotatable=0;whiteSpace=wrap;html=1;" parent="2" vertex="1">
                    <mxGeometry y="150" width="140" height="30" as="geometry"/>
                </mxCell>
                <mxCell id="7" value="tarefas" style="swimlane;fontStyle=0;childLayout=stackLayout;horizontal=1;startSize=30;horizontalStack=0;resizeParent=1;resizeParentMax=0;resizeLast=0;collapsible=1;marginBottom=0;whiteSpace=wrap;html=1;" parent="1" vertex="1">
                    <mxGeometry x="504" y="180" width="170" height="180" as="geometry"/>
                </mxCell>
                <mxCell id="8" value="tarefa_id (INT)" style="text;strokeColor=none;fillColor=none;align=left;verticalAlign=middle;spacingLeft=4;spacingRight=4;overflow=hidden;points=[[0,0.5],[1,0.5]];portConstraint=eastwest;rotatable=0;whiteSpace=wrap;html=1;fontStyle=4" parent="7" vertex="1">
                    <mxGeometry y="30" width="170" height="30" as="geometry"/>
                </mxCell>
                <mxCell id="9" value="descricao (VARCHAR(50))" style="text;strokeColor=none;fillColor=none;align=left;verticalAlign=middle;spacingLeft=4;spacingRight=4;overflow=hidden;points=[[0,0.5],[1,0.5]];portConstraint=eastwest;rotatable=0;whiteSpace=wrap;html=1;" parent="7" vertex="1">
                    <mxGeometry y="60" width="170" height="30" as="geometry"/>
                </mxCell>
                <mxCell id="10" value="data_ini (DATE)" style="text;strokeColor=none;fillColor=none;align=left;verticalAlign=middle;spacingLeft=4;spacingRight=4;overflow=hidden;points=[[0,0.5],[1,0.5]];portConstraint=eastwest;rotatable=0;whiteSpace=wrap;html=1;" parent="7" vertex="1">
                    <mxGeometry y="90" width="170" height="30" as="geometry"/>
                </mxCell>
                <mxCell id="11" value="data_fim (DATE)" style="text;strokeColor=none;fillColor=none;align=left;verticalAlign=middle;spacingLeft=4;spacingRight=4;overflow=hidden;points=[[0,0.5],[1,0.5]];portConstraint=eastwest;rotatable=0;whiteSpace=wrap;html=1;" parent="7" vertex="1">
                    <mxGeometry y="120" width="170" height="30" as="geometry"/>
                </mxCell>
                <mxCell id="12" value="membro_id (INT)" style="text;strokeColor=none;fillColor=none;align=left;verticalAlign=middle;spacingLeft=4;spacingRight=4;overflow=hidden;points=[[0,0.5],[1,0.5]];portConstraint=eastwest;rotatable=0;whiteSpace=wrap;html=1;fontColor=#FF3333;" parent="7" vertex="1">
                    <mxGeometry y="150" width="170" height="30" as="geometry"/>
                </mxCell>
                <mxCell id="16" value="1" style="text;html=1;strokeColor=none;fillColor=none;align=center;verticalAlign=middle;whiteSpace=wrap;rounded=0;sketch=0;fontColor=#FFFFFF;" parent="1" vertex="1">
                    <mxGeometry x="294" y="200" width="30" height="30" as="geometry"/>
                </mxCell>
                <mxCell id="17" value="N" style="text;html=1;strokeColor=none;fillColor=none;align=center;verticalAlign=middle;whiteSpace=wrap;rounded=0;sketch=0;fontColor=#FFFFFF;" parent="1" vertex="1">
                    <mxGeometry x="464" y="330" width="30" height="30" as="geometry"/>
                </mxCell>
                <mxCell id="20" value="POSSUI" style="html=1;whiteSpace=wrap;aspect=fixed;shape=isoRectangle;sketch=0;fontColor=#FFFFFF;" parent="1" vertex="1">
                    <mxGeometry x="334" y="249" width="110" height="66" as="geometry"/>
                </mxCell>
                <mxCell id="22" value="" style="curved=1;endArrow=none;html=1;fontColor=#FFFFFF;entryX=-0.002;entryY=0.5;entryDx=0;entryDy=0;entryPerimeter=0;endFill=0;" parent="1" target="20" edge="1">
                    <mxGeometry width="50" height="50" relative="1" as="geometry">
                        <mxPoint x="294" y="230" as="sourcePoint"/>
                        <mxPoint x="344" y="180" as="targetPoint"/>
                        <Array as="points">
                            <mxPoint x="344" y="230"/>
                            <mxPoint x="294" y="280"/>
                        </Array>
                    </mxGeometry>
                </mxCell>
                <mxCell id="24" value="" style="curved=1;endArrow=classic;html=1;fontColor=#FFFFFF;entryX=0;entryY=0.5;entryDx=0;entryDy=0;exitX=0.996;exitY=0.499;exitDx=0;exitDy=0;exitPerimeter=0;" parent="1" source="20" target="12" edge="1">
                    <mxGeometry width="50" height="50" relative="1" as="geometry">
                        <mxPoint x="444" y="290" as="sourcePoint"/>
                        <mxPoint x="483.78" y="342" as="targetPoint"/>
                        <Array as="points">
                            <mxPoint x="494" y="290"/>
                            <mxPoint x="464" y="330"/>
                        </Array>
                    </mxGeometry>
                </mxCell>
                <mxCell id="26" value="&lt;font style=&quot;font-size: 48px;&quot;&gt;Desenho&lt;/font&gt;" style="text;html=1;strokeColor=none;fillColor=none;align=center;verticalAlign=middle;whiteSpace=wrap;rounded=0;" parent="1" vertex="1">
                    <mxGeometry x="278.5" y="50" width="210" height="70" as="geometry"/>
                </mxCell>
                <mxCell id="27" value="&lt;font style=&quot;font-size: 48px;&quot;&gt;MySQL WB&lt;/font&gt;" style="text;html=1;strokeColor=none;fillColor=none;align=center;verticalAlign=middle;whiteSpace=wrap;rounded=0;" parent="1" vertex="1">
                    <mxGeometry x="243.5" y="410" width="280" height="70" as="geometry"/>
                </mxCell>
                <mxCell id="28" value="" style="shape=image;verticalLabelPosition=bottom;labelBackgroundColor=default;verticalAlign=top;aspect=fixed;imageAspect=0;image=data:image/png,iVBORw0KGgoAAAANSUhEUgAAAdMAAACwCAIAAADbixO6AAAgAElEQVR4Ae1dXWwb15Xm+2KBfdjtwz42yL70YbFBgw2Ipt1tHxZo89htCnS7KFCAzm5TJ5sEbQ0nqFtvEm/TZlls0igWlUSO49R0Yv3Qph3LkuLYym/t2LIt22IsW0mkUL+WaTupLMXczBzO4eGd4TXF4Zm5nDmEYZ25P+fee873fXM55HASZa9XqVTyKq6UmVk7NTXVdnP2E0lZL023n0ia2VfyG+38Jujy0DYTi/pZCVIxfeVyWR+rdqyV/Ep+aQSo3Y54FuW1MtiOmRMlanfu6VEn+Y12fkV5RXkpws2NhigRzZNetduxNm75FeU1V2v0/IkbUmW9orw0AtTWM8XM2kQpKq+pqamoLKWhdch6GwpT2zaS/LZt6hqauOx5Zc9Ldw/mRkP2vDRPZu7j/MwqbvkV5TVXa/Q4jhtSZb2ivDQC1NYzxcxaUV5RXophc6MhykvzZKaa+JlV3PIrymuu1uhxHDekynpFeWkEqK1nipm1oryivBTD5kZDlJfmyUw18TOruOVXlNdcrdHjOG5IlfWK8tIIUFvPFDNrRXlFeSmGzY2GKC/Nk5lq4mdWccuvKK+5WqPHcdyQKusV5aURoLaeKWbWivKK8lIMmxsNUV6aJzPVxM+s4pZfuYetoRtODGwk9zgZmJQWTkny28JgGuhK9rzm7vL0O4i47RFkvbLnpRGgtp4pZtaK8oryUgybGw1RXponM9XEz6zill9RXnO1Ro/juCFV1ivKSyNAbT1TzKwV5RXlpRg2NxqivDRPZqqJn1nFLb+ivOZqjR7HcUOqrFeUl0aA2nqmmFkryivKSzFsbjREeWmezFQTP7OKW35Fec3VGj2O44ZUWa8oL40AtfVMMbNWlFeUl2LY3GiI8tI8makmfmYVt/yK8pqrNXocxw2psl5RXhoBauuZYmat3MNm4O0tDU1J7nFqKExt20jy27apa2jisueVPS/dPZgbDdnz0jyZuY/zM6u45ZddeYvFYldX18s7d/X09ufk1WwEenr7d+zMZjJdMzMzwMC4ITWS6xV2NEuIFvQDTnV0PIucouc2sP2cS/R9eZW3u3tbT29fNj/8wsCxzqEzHcPnOobH5d/aI3Cuc+jMCwPHsvnh3b193d3byuVyJJXIDX0sid56M5mMsGPtXGiVgHhwCsGGhl49/dQyKm9npqsnt7dr8GR4wW1Vkgzy0zU42tO/N9PVFT0l0uM4YusVdpgjC8gpFFw09Jj0U8ulvN3d3bv792y19rkGyVY0JrN1aKynf+8zzzyD+HAbfjBhZt8oKa+wwzQmAqe2bbPeTdIXHxdYlLdYLPb09slulw9ezw2O9vT2hXJ9ig+Les+RUV5hBx8v/Hj25JQek35qWZS3q6srmx9WonD7nadv+u9f/rWwefvA7/PHlb5y6I5ANj+UyWTo+ZnafjBhZt/IKK+www1mQ0rcnOLjAovyvrxz1wsDx5Ro/uCnUz+8b+rf75+2/t1n/wPD/v/f1k/94KdT6x4pfv++X27ePqD0lUN3BLoPHnt5Z5aqLbX5EBOW58gor7DDDWZDStyc4kM7i/L29PZ1Do0p0ew7vQLS8PmN8vXV8p9XyteWb5Q+u7H46Y3ZKzemL39+ceHz59+88q3v/mhjZ5/SVw7dEbCuTPX2UbWlNh9iwvIcGeUVdrjBbEiJm1N8aGe5hy2Xy7m/QNZ/6nrp2sqpC5ff/2Bp9EJpcvazt89dOnx6cezjzwZHF/NHF8aLK5lDlwJW3s3bBxKJxC1fuc2E3Kf73vrVH7Z7/kv3veWa4blcLtfQ7TKRaBSZe7oMZ0fCebnw1pYflRvLKZY9r40tNU+9J5cvXb3+p/FLI6fm3zl7aXzq0+HRhf3H5t+/cK3/vflXjnxy9ELpmYGZOCvvMwfHfnL/gynX6yf3PfD0wGk3E3K5HN3nUpvvXB2W58jseTnYcedddycSiXu3ZNwgWVMJ+InS5T6fnOJDe3DKu/v4p/Ol62+NLQwdnzt8cu7Uh9f2H53ve7v4duHqrpHZHcOTI2cXn9r3cZyVt2N4/NGu3S7hTT36XI8nf0R58WTDx5CWe/ZUXp/saJXy3vKV2xKJhCfY2rfQD6dann1EbHDKu+vo1Zml5SOnFgaOzQ2fmDt+4dqe9+ZeHSkePnv15cOz2wYnD51eTOcmPZX33i2ZRCIB8IKLA3CVAAoBE1hCC2/aEa82AOYSicT37t3YMTyOHcGAIZz3YdZf2BfglOigvjA6dO7+XzxCxff+nz/cMeR9758oL+KYjyEt9+ypvH7Y8b17NyrIpIf18OzmiwJm2gB50TE8rjTzhfZgvuzvg1Mtzz4iNjjl3fnO0vTi8qGTC/v/NHfw/dn3Jq72vj2383BxeOzKi6/PPjcwOXhy8cme8xrlhbMxJB6uzIJcbt4+ACi58667O4bHAYgUcDftiEqKDkFwUY5RoAFnUP7tH/4nInLz9gEY3T8Qn9g5SJX3iT8erOdTlBdxzMeQlnv2VF4/7EA1hKsNFIogwZu3D3ji2c0XxH/H8LinH0ou2qAeRA0pb5pTLc8+IjY45X35zfnJueWDxxdy7xT3vVd8a/xqdmTupdenXxu9/Pxgcev+i/uPLzyx65xGeTVAATkG5OF2lW5dFUVGhCmSisBCpAJ0sJwefvkr/8D06dzPfv0bEN+fbX5Cg11RXsQxH0Na7tlTef2wQ1FeChjkhYJnLFc4grygTqh/uu9R2hh+2BynWp59RGxwyvvioZkPZpZz7868+sZkz5EPh0bntw99/PyBC73vzDy7f/IPuQ9yR+e3vDzWhPLeuyUDgKBvsmBTTFWYqicg7N4tGb3y4jaW9kWwfvWfv0NHhF12S/D3+9y76+75j3X33JPuf0fjUJQXcczHkJZ79lReP+ygyghoUehw75YMJQK2p+hV3kTW8wN8wY4txLwG5y2pao5TLc8+IjY45X1+cPrs1KcHjk73j1zof/PCgaPTf3x9cvvgxCtHPuo6cGHr/one9+Yf337Sj/K6P9ulgKPq6VN5qSvEcWu/mvbw7559+MmtesyJ8iKO+RjScs+eyuuHHYhAwD/ILmgi2PWU180Xuuf19IOAhNrWYh6dMxlNcKrl2UfEBqe8nfsnz8/+eXSy9O65hTfPzB8eWxw6tXjg+Fz+/fncsYXePy30HSs9tu1Ec8qrbF3xCtRalRdO5rirxT1vx/A4vbAAAP3qN78Dn7PB6LSxf+g89droU6+N6v2I8iKO+RjScs+eyuuHHcqVNFTbjuFx3GFQIsA1XIpn5ItbeUGd0c+dd93Nh3k92v3XNsGplmcfERuc8j6+4+z/9RbSr559Mjv2u52nf/vy6Sd2nPqfl0a3bD/x+LbRx7adeGzbiUc63m1OeRFM+D4IdJACjm5UEUnKuyf8qI12xJSjc2gGEIfCUE7+oryIYz6GtNyzp/L6YQfgEyANyESgIs7deFaQD3yB9lRbEd7wfeHQMY9kZDIUTrU8+4hYvnvY1DspNm8f+P59v/zWd3+k/ye/29A4pOQetna8O89TeYUdjcOetWVgnApuz/v7/PHN2wc2dvbp/8lvlTUOLOX8jKfTcrnMd64Oy3O072ETdjQOe9aWCqf40B6c8rLGK57OFZSI8tIIUJuPP0149tzzxhPABq5a4VQT+UXg6fuK8qpXRQxEQ70pKSjBlMuel4bCtGiI8tbDswnlCqf06umnVpRXlFeRKUOvVET7aoMJoiNz6BgeF+VtY0EMDMEKSqiC+jkbm9lXlDcwXMV5IIVTfFzg2vPm5BVIBKjaUpsPMWF5jpLyBgINGaTJCATDIxbl3bRpE5292EwR0MQ5LH3kGzcyyqvJGhNOxG3jEVCyw4dnUd7Gk2JcSwUldH58iAnLsygvza/YTBFQOMWHdlFepgwG4VZBCR2SDzFheRblpfkVmykCCqf40J6YYngps2eKkbjdtGkTQ/bEJW8EhB0mMzcwTgW657164aGr59etrly7ceOGydFvl7lpOMx3rg7Lc+T3vMIOE3incIoP7cEp79Vz37j+QXL5YvLa0b9dnCusrFQeAm9CuNt0DgpK6Cr4EBOW52grr7CDojdEW+EUH9oDUt7PPnl2dXHd9alvXp9OfT76dx++/e2FhQWOnW8ymWx52gqFAodb//NUUEId8iEmLM8RVl5WduTzefi9MQqPBm1jkd/g/JtopnCKD+0BKe+fZ7atzN/9efGbnxf+/vNjXz43+LWJiYnV1dUmQqPv4l8i3R7c+MNf4SuXy4lEIp1Ow6ywZTKZxDZgYBv9/NdUq6CE9uVDTFieI6y8N2UH4oqmuEE7kUgUCoVGGjeCfAA8Srkb/MEgv5HlNNdG4RQf2gNS3nK5vHT6jpXJf1x9/8tLb/7NK9nOCxcumKm87oS5cU9LkvYLwE3Ly+Wycuj27LNEQQn1xoeYsDxHWHlvyo6mgVQoFBIJb45TtNSzPcelhfXAT9vUc25mucIpPrR7Z8XneMrsIcRLkx2rH3/9yuG/OtJz15EjRxYXF+nVBkhhIpHI5/Nw2szn89AR0AOnWRA4TWOswlN9MplMpVKAP+qqXuLxzE8bYyFOCUuSyWQ+n0+lUm6p5cafZ5xhhj4zWC84If76TMSV92bswHdO6XQabEB4PXgDU7BlMplUOrpTjJDWIF8BeT3wcyPfPflWlSic4uNRcMr76SfPrU59fenwX+/du/ejjz5SPmEDGME1qUKhAPoL0cSTNqZT3xgwl06nAUmg5ugKBD2dToNWuhOG+MOOOC42piXQPpVK5fN5Wq5gFPu20FBQQj3zISYsz9FWXj07FFxBouF8jyiF6wBQhe3RoNjAjQItLJfLjSBfQXU98HuOqwxn5qHCKT60B6e8nxWfX536eumNv3hz5NDS0pISd0ghJgwNel0JTuAIEWyDBlYBPkCyEU+etco0aBvsSP1De1pCZ07LFYy6B/JfoqCEOuRDTFieo628enZQXCkbUkSpJ1M0HSlawEZXaNDu2J4W1gM/bYMd28JQOMWH9qCV9/LhvxwZGVmT8iIOMHM034rAYWMAKFVSamMt+kQDPaDhhhEtwWZp+4WHysTQfwsNBSXUMx9iwvIcB+Wtxw6KN7yMBoUUb9QGMGg6UrSAjd3RoN2xPS3Elgr4aRvs2BaGwik+tLM8h02ZPUb8yulbJ49849ixY1euXMFCMCCFmDA04EyO13xv2phCAa4nYAl11eDVBuXCBc6ZTk/xTw9pM+zbQmPTpk3t+CCy5uY8NTXVXEfTejXBDrpRQIDB9TQ8pPBGjFEEYku8EIfNwMAGKO6eLT19wujogbZRRjH8MDBOBbfntT7AXVo6f/789PT08vKykgDIGSYMDbxuAJcaoJmmMf1IQcGT4kqZAB4ievCLkKlUCguhGY5C99HlcplenpY9L4YUDT87iGjvefXsKJfL8Ckx7BgAfgBLikzlQoSCQPCQSCTceIYEoSsN8kFhYQIa8FP+YvbbwlDOi34Qq+8bqPK2RejbaJIKSujM9Vlvx9rIKy9Nn9hhRUDhFB9T4q68uHtFA64whJX4NY2roIT25UNMWJ5FeWl+/dsIeDTaCPn+l1/Pg8IpPrTHXXnrJaAtyhWU0DnzISYsz6K8NL9iM0VA4RQf2kV5mTIYhFsFJXRIPsSE5VmUl+ZXbKYIKJziQ7soL1MGg3CroIQOyYeYsDyL8tL8is0UAYVTfGgX5WXKYBBuFZTQIfkQE5ZnUV6aX7GZIqBwig/torxMGQzCrYISOiQfYsLyLMpL8ys2UwQUTvGhXZSXKYNBuFVQQofkQ0xYnkV5aX7FZoqAwik+tAd6DxtTsGLrNrD7bUy4DSzy97DFFsZGLTwwTsme16i8r20yyvmZduY7V4flWfa8NL9iM0VA4RQf2kV5mTIYhFsFJXRIPsSE5VmUl+ZXbKYIKJziQ7soL1MGg3CroIQOyYeYsDyL8tL8is0UAYVTfGgPVHmLly8/vnfvJ5cuXb9+nSlwsXKroISunQ8xYXmOvPIKOyiAw7IVTvGhPTjlnV5aeurQobnV1c3795+9eNH9c2VhxTqMcQvpZCKRqjzuSD+BRCKZrvMAQwUl1A8fYsLyHA3lzWaznllrlB2FdLIuHGj+Y2izcIoP7QEp7/TS0tOHDn1q46G0uvqLfH4sMPGtASs9sFNFcEweF0xKrR9/tB7jVnml8jXQp/6s1dX4rOfQagSyazcHz86QOJgjzPlUPe315DBwjg8xYXk2X3k32S+qeTRW2Wz2Dvvlztoa2KHijY7WqF0D4EY71barmQY9qMG/9TOSDm/UDQTC3PrZypZyqoauwCocbM2cohmsDYF15Kc2COWdsne7ILsw+4XV1fX79p0OSHwJMohpiWTS+uVd3FFWzao0gpQ6CbNEuFYHqUMQXuLT06Et5M6g+ZTjuqKv+RTR5EodmU1t8hUO/9J+QZMNGzZ8cVTbvHrkBzFh9W1f5UXNzWazX/y+rZK1tbFDwVs1pQFbZB7ENIJTlvI6rLKjgseESMSsjZySHT60B6G8j+7ZM7e6WrvA8hvF4sa+vtnZWSi3Ho3q7CyJ4MAZs1JgC6VVkspbgbMNx2ulIKGeWu36KjbyKUfzbJCkC3RDWRVKkjz3uzvSzN7jokfnCH2Slpj9GuF1Zl/R7HShXAVNddKVqZLGFVNBiSivO0RQwscf6tm95+3u7oZ9LmguTEbJWiPsgPN/ZfsIeHMB3lWAGz1Lhxx+WVRyYFnToNod32FVi2qEDFZRhadxnCJcs+fqh1M0v7Bw+r+f2iCUt3jp0uMHDpSI+J6an39g167BwcHJyUlYSfWyp6NbKedCqAUAO/VJwIQFGBt9TkvrF/vxLFdFBAmRkwvnb1XpLI11pNNBZI04OtcFqt7IGyibC053R3ir3T0dek4QxbW6EKL+1KzOw7V7EuWlwaG2H4Y03pcqL+xzb7/9dqq5MCVFeRthB3LBAycOnhCo8D7KIU0lDFV+OcqrNKiGyyEJDooErLaBS3A2K53m5nCqekYBavrhVOPZrwmOfaDvG8Q9bCsrK+cmJzfs27dgi++p+fn7s9k9e/YcP358cXERZlwVKUQSKpqT+UobpwGisPZyUs1W2AkHwKOQTjpnb3RCpLcqqTi0A1PHj/W3OlUCNqvC5dPTYbVV1WlV/r1R4tUH3rduIK+v2a8NGzaUSiUoRoO08jDpLWoe1a6iUNo/+OCDrolUCkKZj3syd9qvH//4x7fccsvtt9/e3d3tGX9FeZtkR2UDDH8sVNvvGB14KyitPQQA18AY0Is+bfxXGzgErALWsgznFMzQWslaOUXhxGcHsectl8vLy8tjFy+u37fvjWLxgV27QHYXFhZWnY1wTZrrJL7SBmUIjVpg1eKjcmS9JcrXCC/CDK9QVP3jDtoCNJFh21l1qjVqawmv4tPTIZk1zK0qu3U372RfQVcHmyz8/5/sFxAbr/NiLTU2bNhADxWfSi1tuWnTpi88K+1pA8++2L5UKtHGio19sT2cXaDZgw8+qLTHQ/pZBxZSAz1DoeJfqaUd17ReiP8999xz66233nHHHdlstt566QT8sqPGF2z3LP2tQWntIVSpDRDnDkCrDbyVt2wwpyAolZVUlddZmlVdn1M0ovp9q5/agJQX4HX64sWH+/sHBwdPnDhBZbdmI+lEx/1mpwIFpwHZY1on/OrpnkYObRuTTptaKDnSV4Wa1bjS1tZTp5+Vr1opxsnYwkvbJZLpL6FoE4dkk21vkxHx9lQRD3SK1UFwObah7J7kakNteKpHfhjSeF8q641fbYBZLi8va9iBmLNQYYOqClBnlanKJ8UVsCgXE6rYdlS4XgP3EBSKzmj2XzM5hZ9aO/P2w6nGs18TGftA3zc45QXxnZ2d/fDDDxcXF3G3CzOuIgNlxgocvCqCplHemg0n6l1NMDD+9LIAtKhIb3UOIImOJlYnovkGDE67MqjlM/El/N4ETBBm5ih9ZZTqRtmutuFslaGMOwiqWY51IMqLIdGjPJhaqrwwsUY+YcMlLC8v12OHdba2X9UvzlBQOlpcaQOgIw3gEzb8UniVR9DBhpozQsJrCIQiThYMEzlFpcCZNy7OKVD2SWRZCqf4kBOo8pIFxtqsK6WeUakKtVqtoET2vGqAnGM+/lDPbuWFWv23ypw5yl9fEWDiFM2ve35+akV53fEMoMTekOAJWDug5/fkoIeivNSNH0yY2bd9v88LeUH91WSNZlDsNUaAhVN8XBDlXWN+TWqu4TAfYsLybL7yuqHhjlW9u4fdfaUklAgonHJnkM7KT60oL41km9kKSujs/WDCzL7RUF731XmaNbFDj4DCKT4uiPKGnuvmJ6CghDriQ0xYnkV5aX7FZoqAwik+tIvyMmUwCLcKSuiQfIgJy7MoL82v2EwRUDjFh/Yg7mFjipG4DeyZUXx38jTuWZ7DJoAPIAKBcUr2vAFkk2sI5fxMh+E7V4flWfa8NL9iM0VA4RQf2kV5mTIYhFsFJXRIPsSE5VmUl+ZXbKYIKJziQ7soL1MGg3CroIQOyYeYsDyL8tL8is0UAYVTfGgX5WXKYBBuFZTQIfkQE5ZnUV6aX7GZIqBwig/torxMGQzCrYISOiQfYsLyLMpL8ys2UwQUTvGhPVDllaerthYuCkqocz7EhOU58spbmi0OpH9zqfiJPJmbIjlgW+EUH9qDU95Gn64acKRDGi5pPdoo1cjgiUSiUMDfmarpoaCE1vEhJizP0Vbey8XpNzufvj43M/DbRy+eO8v0ZO5kMklB0hK7UChwuG3J3JpwonCKD+0BKe8anq7aRLTqd1FgkUwmqYol7Rf0dn4wz/pL2+TzeawCraQ4c/untdhR8ZlOp8FVoVDANul0WpkJHObzeeqTrlVBCa3iQ0xYniOsvJbsZv5w49Nr5XJ55UrptV/94uLZMQ7xrQckihy97fagUOCL26MR0mAjsLFlMun8/qvTFNvoRw+gVuEUH9qDUN61PV211dFFtcXEwwhwiLUIKVBDaJNOpxOJaoj0yqs4tH/uvbLFoD4BjiDuefsFY4E6p1KpfD5fLpdRncEPFCqxUVBCa/kQE5bnqCrv5U+s3S7ILmTw+uL8/p+vv3jmdMvFF0FOoeLTVmhlPaeF7IJhcwNop+VKM59zaGF3hVN8aA/iHraGnq5KTpX5fB4kD86IkDZ4ew46SLeKACZaoqQhbb+sx3/YbrEWylOpFJxvKShRbVGXsRfVUwU9ikOlJfqst4eFsbAZhSkugU4Dfnul8XvA2r1lVO9hO/DklutzM0pmp0cO5X69kTyZ21KwRCIB4AEDulDkI1PqNQYdbIRWynzwEGlCx8VCnBKWJJPJfD6P7/CwXOEO+g/diNQ9bI08XRUy5I47po2iDW2UJyyhW0Xwhh5wOwnloHSog4gJLIHNqXtKzjukyl/sqDikykt9esooXQiOiCqMS8AqMJTzM63lO1eH5Tmqe96lmeLQ/25ZuVLC9M2fOfnqhgfok7nh/RBc+CoUChROCBIKIWiDvRCieNUrnU5DIRIH0O5+v4WzAoO6gsY4LrakJdAeqEfLTVZeXAh9vh8tRNsPF6pvpdGd//EURWjs6ao11/7dZ1RMOVU0zCXWQke6FhRQbKNkHeCIekqbURt90kKcABowHOw+PH16Ki9SAomE01Zmi9P4ooESZ1rlBxNm9o2q8q6srEyOnzvw643XF+fL5fL8mZOvbPgv15O5LXYgxtAAkCDMADyAT2yDhkIc2hiQg8D2JJHShjZGG9q4R4QSWk6XQ3Ebuq1wio8LQShvY09XrVFeVCLMFs0u2u5aT9DAKRfe8kBq6dWMRCKBWwClO06DAgJHp+hxO0SgKz7dyktHQeXFpcF1Ejp5nIyCEiz3f+6krhSbD4t6z1FVXmDHxbNj+3++fnrk0KsbHvB6Mndd5aVohExBCeIHDQQk4DZI5YXPLZBlME86MQVjIR4qnNJj0k9tQMrbwLOHretBGHHEE2YLS+imEpOHb5rcVxtAubABDEEvbsB7N/QP7+mgWeOfsLkdUqBTn/StIogybJBhRLwkQhfiFmtorKAECuF/P5gws2+ElbcivmdO7/nvR+o8mbuu8irARtQhNdDAKvr5LcIeaLWmqw2AW2Qows9zRPBPh6PNsG/ohsIpPi4Ep7wAr3pPVwUNgvdNcFkT7FQqBdmiOaPf9IJy2t0zebiXpBtVbJlIJG677TY8BMFFYOG7uXrfbXBjCLaxdM7UJ25yPXfKOBzOh8o6Fn4BZQUltIoPMWF5jrby6tmBIFcM3L0CZqBWaUPBidCCNlSLFVcUS9TGjshBZCg2w1EU/3TP4UlD9BCioXCKD+2BKm/LA1rvo6eWD9Rah3Q/e1PPCl5pewUltIoPMWF5jrzy0vSJHVYEFE7xob0tlTeVStHzalhJ8jOu3MPmjp4e5aK87ohxlyDL0KBXxrhHD8W/KG8oYW+zQRWU0NnrVawda0V5aX7FZoqAwik+prTlnpcp6G3nVkEJnT8fYsLyLMpL8ys2UwQUTvGhPYh72JhiJG4Du9/GhPvfonoPm8DYqAgEximWPW9OXkFFoB5q+c7VYXmOzJ43KGjIOE1GgHKKD+1cyjsiL/4I5HI5ihJq8yEmLM9RUl5+aMgITUZA4RQf2kV5m8yQCd0UlIjy0ghQm48/TXjO5XImgEfm4BkBhVNN5BeBp+8ryusZ//YoVFCCKZe7h2koTIuGKK/J7FI4pVdPP7WivCbD4CZzU1BC5cYPJszsK1cbboIGqW5FBBRO8XFBlLcV6QrJh4ISUV4aAWrz8acJz7LnDYkuDQ2rcKqJ/CLw9H0NVd6xojX/4lhDwYpMo87Ozmefffbw4cMNrkhBCabctPfXODE9FvW1sudFVMSTHbj8NRk+OaXHpJ/agJQXsFJhYGniprGLJ7aefvrpVCr10EMPvfTSSzcN0cjIiChvS1UxDLMAAAbpSURBVDTdD3+a6Ove8wo7GkF7c218cqqJ/DaIyYCU14raWtR0LW2by4iJvQAlKfu1cePG3t5e/SxFeRtEOR9/mvDsVl5hhx7nfmp9cqqJ/DaISZZ72G6OLVBWXFZp4qgd3ZqTP15toKV2y0pvu9PRCfsxKqWJirLDur0cOmV+8sjbl6IklUqtW7fusccee+211+qNmsvlSrF5ReYeNmFHPTxzlBvLqZD2vEQ7wbQu6VYtYtrKWhFNuwHYjun89WoGomy+4CLgFJTA5nf9+vX79u3DNtSQPW+D+ws8xWN7agRc27DyWjuLKieqFin0gr3z9rI0cTRS7KDIb9z2ySk+bISqvPYnaIgoNBzoWJ+wgXpSnjifu2GN5QUPqi2LY7SwLfRXQUkje97qemstPsSE5Tnin7B5op8or2c9RXgl/5VPpbEmOuxoXG1pS5+c4kN7eyivl24CFCvfgACgeTTDVu3wVQmKErnOW3sqKYvyIoRRhevCvrItjhQ7qJ42bvvkVCyUl8IIseVAqHIqx4jbDYpjUO28r8Irw9isYoBr1YfaKvRjQIl8t0HRXDiMufIKO5qjp09Otb3y0q1nGT8Ns6WwKrKuawYVqQTQOXQsTZyGD9WgtlJZmlB6lyaO1vTz2A83l0rGXplMprOzU77P66S65m+ElVfYwUcqn5xqe+Xli2ycPcsnbKjNfAxpuWfvT9jijGOT1q5wquXZR8QGeJ3XpPhGYy4KSjCpcg8bDYVp0RDlNZl9CqdEeU1OVmhzU1BC5YYPMWF5jvDVhtAAJAO7IqBwig/tsud1xb59ChSUiPLSCFCbjz9NeJY9r8kMUzjVRH4RePq+iSmGl2ArGGzlcjmG7IlL3ggIO4JhR3OjBMYp2fM2lyAjeinnZzzZmnZlEyem3wXoa+VqgxGYi/okFE7pMemnlkt5m3z4nHRbYwRQ1BTDDybM7Bsl5V1jkqV5oBGgVOLjAovy7u7t6xw60zE8Lv/4ItA5NLa7t4+ihNp8iAnLc2SUV9jBRwqfnt2c4kM7i/Lu2Jl9YeCYzyhId30EXhg4umNnlqottfkQE5bnyCivsEMP7BBr3ZziQzuL8mYyXdn8cIgRjMPQu/JDmUyGqi21+RATlufIKK+ww1h6ujnFh3YW5Z2Zmdnd29c1OGpsiNt9Yl0HR3f39s3OzlK1pTYfYsLyHBnlFXaYyT5PTvGhnUV5y+Xytm3bevr3bh0aMzPKbT2rrUNjPf17Ozo6qNQqNh9iwvIcGeUVdhjIPuDUiy++GBiPuJS3XC5nurp6+vc+Jzvfln7S2HVwtKd/byaTiZISAdz1mh6x9Qo7zNFf5JQiu6zfzmRUXvvc/mJPb182P9R98Ji9/z1nTrjbaibntg6NvTBwNJsf6untgzNzxJTopiiP3nq7urqEHeHR0INTgSpvifl1/vz5jo6OHX/M9vT2BfqtvGgN1tPbt2NntqOjY2JiAjIWmeeSNQjASK5X2BEiTd2cahCKLWnGu+cN8hwSvT1RrN59x3DPK/ml+hA3/oryWtnXc8DM2rghVdZLdcpMTPqZVdzyK8oryksZbW404sZMWS/FpR9NN7OvKK+5WqNHjDAz2syU/EY7v6K8orwU4eZGQ5SI5kl/Vm7H2rjlV5TXXK3R8yduSJX1ivLSCFBbzxQza0V5RXkphs2NhigvzZOZauJnVnHLryivuVqjx3HckCrrFeWlEaC2nilm1oryivJSDJsbDVFemicz1cTPrOKW30RL7scwwUkk73HSBFbWqwlOBKokvxFIomYJsuc1d5en30HEbY8g65U9L40AtfVMMbNWlFeUl2LY3GiI8tI8makmfmYVt/yK8pqrNXocxw2psl5RXhoBauuZYmatKK8oL8WwudEQ5aV5MlNN/MwqbvkV5TVXa/Q4jhtSZb2ivDQC1NYzxcxaUV5RXophc6MhykvzZKaa+JlV3PIrymuu1uhxHDekynpFeWkEqK1nipm1oryivBTD5kZDlJfmyUw18TOruOVXlNdcrdHjOG5IlfWK8tIIUFvPFDNr5R42zW0mRlfJPU5Gp8f35CS/vkNotAPZ88qel+4ezI2G7Hlpnszcx/mZVdzyK8prrtbocRw3pMp6RXlpBKitZ4qZtaK8orwUw+ZGQ5SX5slMNfEzq7jlV5TXXK3R4zhuSJX1ivLSCFBbzxQza0V5RXkphs2NhigvzZOZauJnVnHLryivuVqjx3HckCrrFeWlEaC2nilm1oryivJSDJsbDVFemicz1cTPrOKWX1Fec7VGj+O4IVXWK8pLI0BtPVPMrBXlFeWlGDY3GqK8NE9mqomfWcUtv3IPm9E3umgmJ/c4aYITgSrJbwSSqFnC/wMBbfXsUH6qgAAAAABJRU5ErkJggg==;" vertex="1" parent="1">
                    <mxGeometry x="150" y="530" width="467" height="176" as="geometry"/>
                </mxCell>
            </root>
        </mxGraphModel>
    </diagram>
</mxfile>